# xmcd CD database file
#
# Track frame offsets:
#	150
#	13840
#	27312
#	42192
#	56542
#	69455
#	82847
#	95457
#	109380
#	120742
#	135175
#	149910
#	164127
#	176000
#	188277
#	200337
#	211530
#	227282
#	241125
#	255160
#	268207
#	282170
#
# Disc length: 3942 seconds
#
# Revision: 0
# Processed by: cddbd v1.4PL0 Copyright (c) Steve Scherf et al.
# Submitted via: CDex 1.50beta10
#
DISCID=2b0f6416
DTITLE=Lester Young - The essence of Lester Young
DYEAR=1988
DGENRE=Jazz
TTITLE0=Shoe shine boy
TTITLE1=Evenin'
TTITLE2=Boogie-Woogie
TTITLE3=Oh, lady be good
TTITLE4=Taxi war-dance
TTITLE5=Lonesome Miss Pretty
TTITLE6=Pound cake
TTITLE7=Song of the island
TTITLE8=Clap hands!Here comes Charley!
TTITLE9=Dicki's dream
TTITLE10=Lester leaps in
TTITLE11=Riff interlude
TTITLE12=Hollywood jump
TTITLE13=I never knew
TTITLE14=Tickle toe
TTITLE15=Louisiana
TTITLE16=Easy does it
TTITLE17=Broadway
TTITLE18=Mean to me
TTITLE19=When you're smiling
TTITLE20=The man I love
TTITLE21=All of me
EXTD=YEAR: 1988
EXTT0=
EXTT1=
EXTT2=
EXTT3=
EXTT4=
EXTT5=
EXTT6=
EXTT7=
EXTT8=
EXTT9=
EXTT10=
EXTT11=
EXTT12=
EXTT13=
EXTT14=
EXTT15=
EXTT16=
EXTT17=
EXTT18=
EXTT19=
EXTT20=
EXTT21=
PLAYORDER=
